<svg xmlns="http://www.w3.org/2000/svg" width="50" height="50" viewBox="0 0 50 50">
    <g>
        <path fill="none" d="M0 0H50V50H0z" transform="translate(-1440 -60) translate(1440 60)"/>
        <path fill="#fff" d="M26.5 6.053a1.139 1.139 0 0 0-1.14 1.14V8.4h-7.177v-.019h-9.45V7.172a1.14 1.14 0 0 0-2.28 0v22.88a1.14 1.14 0 1 0 2.28 0v-5.6H15.9v.021h9.451v5.6a1.139 1.139 0 1 0 2.278 0V7.193a1.137 1.137 0 0 0-1.129-1.14zM8.733 22.175V10.662H15.9v11.513zm9.45.019V10.681h7.173v11.513z" transform="translate(-1440 -60) translate(1434.047 65.968)"/>
    </g>
</svg>
