<svg xmlns="http://www.w3.org/2000/svg" width="181.816" height="49.392" viewBox="0 0 181.816 49.392">
    <defs>
        <clipPath id="clip-path">
            <path id="Path_70" d="M76 129.953a1.411 1.411 0 0 0 1.414-1.409v-2.783h-4.595v-2.538H70v2.538h-9.2a3.926 3.926 0 0 0-1.868.384 2.734 2.734 0 0 0-1.1 1.047 4.34 4.34 0 0 0-.518 1.535 12.232 12.232 0 0 0-.133 1.844q0 .62.029 1.27a10 10 0 0 0 .119 1.18H60.6a5.78 5.78 0 0 1-.09-.62c-.02-.216-.029-.442-.029-.679a1.421 1.421 0 0 1 1.778-1.77H70v3.069h2.817v-3.069z" class="cls-1" transform="translate(-57.187 -123.223)"/>
        </clipPath>
        <clipPath id="clip-path-2">
            <path id="Path_72" d="M61.1 174.412a3.064 3.064 0 0 1-.845-2.317 2.948 2.948 0 0 1 .445-1.653 3.313 3.313 0 0 1 1.141-1.077 5.205 5.205 0 0 1 1.556-.576 6.9 6.9 0 0 1 1.534-.177 5.879 5.879 0 0 1 1.421.177 5.122 5.122 0 0 1 1.6.6 3.646 3.646 0 0 1 1.186 1.106 2.93 2.93 0 0 1 .459 1.683 2.813 2.813 0 0 1-2.638 3.1v4.1a5.606 5.606 0 0 0 4.373-2.317 6.963 6.963 0 0 0 1.083-2.243 9.566 9.566 0 0 0 .355-2.612 8.283 8.283 0 0 0-.623-3.306 6.954 6.954 0 0 0-1.734-2.45 7.432 7.432 0 0 0-2.638-1.52 8.406 8.406 0 0 0-2.993-.516 7.8 7.8 0 0 0-3 .561 7.337 7.337 0 0 0-2.475 1.564 6.947 6.947 0 0 0-1.616 2.434 8.321 8.321 0 0 0-.578 3.143 7.6 7.6 0 0 0 1.6 4.987 6.955 6.955 0 0 0 4.655 2.362v-4.035a4.005 4.005 0 0 1-2.267-1.018" class="cls-1" transform="translate(-57.115 -164.422)"/>
        </clipPath>
        <clipPath id="clip-path-3">
            <path id="Path_74" d="M64.793 159.338a5.7 5.7 0 0 1-3.365-.768 2.9 2.9 0 0 1-1.028-2.48 2.284 2.284 0 0 1 .934-2.1 5.387 5.387 0 0 1 2.832-.59h7.264a1.4 1.4 0 0 0 1.393-1.4v-2.79H63.4a12.431 12.431 0 0 0-2.594.251 4.932 4.932 0 0 0-1.986.871 3.981 3.981 0 0 0-1.26 1.7 7.3 7.3 0 0 0-.445 2.76 6.077 6.077 0 0 0 .592 2.6 4.726 4.726 0 0 0 1.927 2.066v.088h-2.446v3.984h15.639v-4.19z" class="cls-1" transform="translate(-57.115 -149.214)"/>
        </clipPath>
        <clipPath id="clip-path-4">
            <path id="Path_76" d="M69.045 194.035a4.933 4.933 0 0 0 1.985-.87 4.1 4.1 0 0 0 1.275-1.7 7.1 7.1 0 0 0 .459-2.759 5.486 5.486 0 0 0-.607-2.42 4.859 4.859 0 0 0-1.943-2.037v-.088h6.848a1.4 1.4 0 0 0 1.283-1.4v-2.8H57.18v4.191h8.033a5.706 5.706 0 0 1 3.365.767 2.9 2.9 0 0 1 1.023 2.479 2.284 2.284 0 0 1-.934 2.1 5.4 5.4 0 0 1-2.832.59H57.18v4.19h9.27a12.37 12.37 0 0 0 2.594-.251" class="cls-1" transform="translate(-57.18 -179.972)"/>
        </clipPath>
        <clipPath id="clip-path-5">
            <path id="Path_78" d="M68.456 133.565a7.124 7.124 0 0 1 4.256 4.146 8.842 8.842 0 0 1 .589 3.305 8.966 8.966 0 0 1-.589 3.32 7.239 7.239 0 0 1-1.661 2.54 7.321 7.321 0 0 1-2.6 1.623 9.637 9.637 0 0 1-3.4.571 9.511 9.511 0 0 1-3.38-.571 7.339 7.339 0 0 1-2.581-1.623 7.067 7.067 0 0 1-1.645-2.54 9.177 9.177 0 0 1-.573-3.32 9.05 9.05 0 0 1 .573-3.305 7.081 7.081 0 0 1 1.645-2.524 7.307 7.307 0 0 1 2.581-1.623 9.461 9.461 0 0 1 3.38-.571 9.586 9.586 0 0 1 3.4.571m-5.221 3.875a4.9 4.9 0 0 0-1.6.616 3.288 3.288 0 0 0-1.132 1.158 3.524 3.524 0 0 0-.422 1.8 3.606 3.606 0 0 0 .422 1.817 3.266 3.266 0 0 0 1.132 1.172 4.879 4.879 0 0 0 1.6.616 9.2 9.2 0 0 0 1.826.18 9.432 9.432 0 0 0 1.841-.18 4.72 4.72 0 0 0 1.6-.616 3.428 3.428 0 0 0 1.131-1.172 3.5 3.5 0 0 0 .438-1.817 3.416 3.416 0 0 0-.438-1.8 3.454 3.454 0 0 0-1.131-1.158 4.744 4.744 0 0 0-1.6-.616 9.433 9.433 0 0 0-1.841-.18 9.2 9.2 0 0 0-1.826.18" class="cls-1" transform="translate(-56.881 -132.994)"/>
        </clipPath>
        <clipPath id="clip-path-6">
            <path id="Path_80" fill="#fff" d="M65.495 75.333h-20.1l8.987 20.423H80.3z" clip-rule="evenodd" transform="translate(-45.394 -75.333)"/>
        </clipPath>
        <clipPath id="clip-path-7">
            <path id="Rectangle_96" d="M0 0H813.412V1446.066H0z" class="cls-3"/>
        </clipPath>
        <clipPath id="clip-path-8">
            <path id="Path_83" fill="#5d38fa" d="M51.271 96.426l-8.077-19.785-4.244 19.647 4.2 19.26z" clip-rule="evenodd" transform="translate(-38.95 -76.641)"/>
        </clipPath>
        <style>
            .cls-1{fill:none}.cls-13,.cls-3{fill:#fff}.cls-11{fill:#5d38fa}.cls-13{fill-rule:evenodd}
        </style>
    </defs>
    <g id="Group_242" transform="translate(-75.333 82.784) rotate(-90)">
        <text id="SmartOffice" fill="#fff" font-family="OpenSans-Bold, Open Sans" font-size="22px" font-weight="700" transform="translate(39.392 129.149) rotate(90)">
            <tspan x="0" y="0">Smart</tspan><tspan y="0" font-family="OpenSans, Open Sans" font-weight="400">Office</tspan>
        </text>
        <g id="Group_232" transform="translate(60.744 128.957)">
            <g id="Group_223" transform="translate(0.343)">
                <path id="Path_69" d="M76 129.953a1.411 1.411 0 0 0 1.414-1.409v-2.783h-4.595v-2.538H70v2.538h-9.2a3.926 3.926 0 0 0-1.868.384 2.734 2.734 0 0 0-1.1 1.047 4.34 4.34 0 0 0-.518 1.535 12.232 12.232 0 0 0-.133 1.844q0 .62.029 1.27a10 10 0 0 0 .119 1.18H60.6a5.78 5.78 0 0 1-.09-.62c-.02-.216-.029-.442-.029-.679a1.421 1.421 0 0 1 1.778-1.77H70v3.069h2.817v-3.069z" class="cls-3" transform="translate(-57.187 -123.223)"/>
                <g id="Group_222" clip-path="url(#clip-path)">
                    <path id="Rectangle_89" d="M0 0H24.488V14.06H0z" class="cls-1" transform="translate(-2.131 -2.13)"/>
                </g>
            </g>
            <g id="Group_225" transform="translate(0.262 46.132)">
                <path id="Path_71" d="M61.1 174.412a3.064 3.064 0 0 1-.845-2.317 2.948 2.948 0 0 1 .445-1.653 3.313 3.313 0 0 1 1.141-1.077 5.205 5.205 0 0 1 1.556-.576 6.9 6.9 0 0 1 1.534-.177 5.879 5.879 0 0 1 1.421.177 5.122 5.122 0 0 1 1.6.6 3.646 3.646 0 0 1 1.186 1.106 2.93 2.93 0 0 1 .459 1.683 2.813 2.813 0 0 1-2.638 3.1v4.1a5.606 5.606 0 0 0 4.373-2.317 6.963 6.963 0 0 0 1.083-2.243 9.566 9.566 0 0 0 .355-2.612 8.283 8.283 0 0 0-.623-3.306 6.954 6.954 0 0 0-1.734-2.45 7.432 7.432 0 0 0-2.638-1.52 8.406 8.406 0 0 0-2.993-.516 7.8 7.8 0 0 0-3 .561 7.337 7.337 0 0 0-2.475 1.564 6.947 6.947 0 0 0-1.616 2.434 8.321 8.321 0 0 0-.578 3.143 7.6 7.6 0 0 0 1.6 4.987 6.955 6.955 0 0 0 4.655 2.362v-4.035a4.005 4.005 0 0 1-2.267-1.018" class="cls-3" transform="translate(-57.115 -164.422)"/>
                <g id="Group_224" clip-path="url(#clip-path-2)">
                    <path id="Rectangle_90" d="M0 0H19.919V19.313H0z" class="cls-1" transform="translate(-2.131 -2.131)"/>
                </g>
            </g>
            <g id="Group_227" transform="translate(0.262 29.103)">
                <path id="Path_73" d="M64.793 159.338a5.7 5.7 0 0 1-3.365-.768 2.9 2.9 0 0 1-1.028-2.48 2.284 2.284 0 0 1 .934-2.1 5.387 5.387 0 0 1 2.832-.59h7.264a1.4 1.4 0 0 0 1.393-1.4v-2.79H63.4a12.431 12.431 0 0 0-2.594.251 4.932 4.932 0 0 0-1.986.871 3.981 3.981 0 0 0-1.26 1.7 7.3 7.3 0 0 0-.445 2.76 6.077 6.077 0 0 0 .592 2.6 4.726 4.726 0 0 0 1.927 2.066v.088h-2.446v3.984h15.639v-4.19z" class="cls-3" transform="translate(-57.115 -149.214)"/>
                <g id="Group_226" clip-path="url(#clip-path-3)">
                    <path id="Rectangle_91" d="M0 0H19.973V18.575H0z" class="cls-1" transform="translate(-2.131 -2.131)"/>
                </g>
            </g>
            <g id="Group_229" transform="translate(0.335 63.544)">
                <path id="Path_75" d="M69.045 194.035a4.933 4.933 0 0 0 1.985-.87 4.1 4.1 0 0 0 1.275-1.7 7.1 7.1 0 0 0 .459-2.759 5.486 5.486 0 0 0-.607-2.42 4.859 4.859 0 0 0-1.943-2.037v-.088h6.848a1.4 1.4 0 0 0 1.283-1.4v-2.8H57.18v4.191h8.033a5.706 5.706 0 0 1 3.365.767 2.9 2.9 0 0 1 1.023 2.479 2.284 2.284 0 0 1-.934 2.1 5.4 5.4 0 0 1-2.832.59H57.18v4.19h9.27a12.37 12.37 0 0 0 2.594-.251" class="cls-3" transform="translate(-57.18 -179.972)"/>
                <g id="Group_228" clip-path="url(#clip-path-4)">
                    <path id="Rectangle_92" d="M0 0H25.428V18.575H0z" class="cls-1" transform="translate(-2.131 -2.131)"/>
                </g>
            </g>
            <g id="Group_231" transform="translate(0 10.941)">
                <path id="Path_77" d="M68.456 133.565a7.124 7.124 0 0 1 4.256 4.146 8.842 8.842 0 0 1 .589 3.305 8.966 8.966 0 0 1-.589 3.32 7.239 7.239 0 0 1-1.661 2.54 7.321 7.321 0 0 1-2.6 1.623 9.637 9.637 0 0 1-3.4.571 9.511 9.511 0 0 1-3.38-.571 7.339 7.339 0 0 1-2.581-1.623 7.067 7.067 0 0 1-1.645-2.54 9.177 9.177 0 0 1-.573-3.32 9.05 9.05 0 0 1 .573-3.305 7.081 7.081 0 0 1 1.645-2.524 7.307 7.307 0 0 1 2.581-1.623 9.461 9.461 0 0 1 3.38-.571 9.586 9.586 0 0 1 3.4.571m-5.221 3.875a4.9 4.9 0 0 0-1.6.616 3.288 3.288 0 0 0-1.132 1.158 3.524 3.524 0 0 0-.422 1.8 3.606 3.606 0 0 0 .422 1.817 3.266 3.266 0 0 0 1.132 1.172 4.879 4.879 0 0 0 1.6.616 9.2 9.2 0 0 0 1.826.18 9.432 9.432 0 0 0 1.841-.18 4.72 4.72 0 0 0 1.6-.616 3.428 3.428 0 0 0 1.131-1.172 3.5 3.5 0 0 0 .438-1.817 3.416 3.416 0 0 0-.438-1.8 3.454 3.454 0 0 0-1.131-1.158 4.744 4.744 0 0 0-1.6-.616 9.433 9.433 0 0 0-1.841-.18 9.2 9.2 0 0 0-1.826.18" class="cls-11" transform="translate(-56.881 -132.994)"/>
                <g id="Group_230" clip-path="url(#clip-path-5)">
                    <path id="Rectangle_93" d="M0 0H20.681V20.337H0z" class="cls-1" transform="translate(-2.131 -2.131)"/>
                </g>
            </g>
        </g>
        <g id="Group_241" transform="translate(40.666 75.333)">
            <g id="Group_236" transform="translate(7.215)">
                <path id="Path_79" d="M65.495 75.333h-20.1l8.987 20.423H80.3z" class="cls-13" transform="translate(-45.394 -75.333)"/>
                <g id="Group_235" clip-path="url(#clip-path-6)">
                    <g id="Group_234" transform="translate(-746.877 -42.177)">
                        <path id="Rectangle_94" d="M0 0H813.412V1446.066H0z" class="cls-3"/>
                        <g id="Group_233" clip-path="url(#clip-path-7)">
                            <path id="Rectangle_95" d="M0 0H42.434V27.955H0z" class="cls-3" transform="translate(743.111 38.411)"/>
                        </g>
                    </g>
                </g>
            </g>
            <g id="Group_237" transform="translate(7.074 23.027)">
                <path id="Path_81" d="M45.268 115.556l8.541-19.412.381-.247h24.631l.336.658-14.069 19.411-.336.171h-19.1zm9.193-18.83l-8.177 18.581h18.257l13.467-18.58z" class="cls-3" transform="translate(-45.268 -95.897)"/>
            </g>
            <g id="Group_240" transform="translate(0 1.465)">
                <path id="Path_82" d="M51.271 96.426l-8.077-19.785-4.244 19.647 4.2 19.26z" class="cls-13" transform="translate(-38.95 -76.641)"/>
                <g id="Group_239" clip-path="url(#clip-path-8)">
                    <g id="Group_238" transform="translate(-3.766 -3.766)">
                        <path id="Rectangle_97" d="M0 0H19.852V46.439H0z" class="cls-11"/>
                    </g>
                </g>
            </g>
        </g>
    </g>
</svg>
